<svg xmlns="http://www.w3.org/2000/svg" version="1.1" xmlns:xlink="http://www.w3.org/1999/xlink" xmlns:svgjs="http://svgjs.dev/svgjs" width="550" height="345" viewBox="0 0 550 345" style="width: 100%; height: 100%;">
  <svg viewBox="0 0 640 400" data-background-color="#00784a" preserveAspectRatio="xMidYMid meet" height="400" width="550" x="0" y="-27.5">
    <g id="tight-bounds" transform="matrix(1,0,0,1,122.24000000000001,92.05431716324509)">
      <svg viewBox="0 0 395.52 215.89136567350982" height="215.89136567350982" width="395.52">
        <g>
          <svg viewBox="0 0 395.52 215.89136567350982" height="215.89136567350982" width="395.52">
            <g transform="matrix(1,0,0,1,0,142.26260976944943)">
              <svg viewBox="0 0 395.52 73.6287559040604" height="73.6287559040604" width="395.52">
                <g>
                  <svg viewBox="0 0 395.52 73.6287559040604" height="73.6287559040604" width="395.52">
                    <g>
                      <svg viewBox="0 0 395.52 73.6287559040604" height="73.6287559040604" width="395.52">
                        <g transform="matrix(1,0,0,1,0,0)">
                          <svg width="395.52" viewBox="1.4358147910365464 -32.324059999999996 224.5659483938254 41.804489999999994" height="73.6287559040604" data-palette-color="#fffafe">
                            <path d="M29.47-9.966c0.421 2.552 0.432 4.969 0.032 7.251-0.399 2.289-1.166 4.318-2.3 6.086v0l3.245 2.282-1.746 2.376-3.357-2.405c-1.895 1.867-4.21 3.026-6.946 3.478v0c-2.677 0.442-5.183 0.119-7.518-0.969-2.328-1.089-4.295-2.811-5.901-5.168-1.605-2.357-2.676-5.156-3.21-8.399v0c-0.536-3.249-0.424-6.254 0.336-9.015 0.761-2.761 2.068-5.031 3.923-6.81 1.862-1.78 4.131-2.891 6.808-3.333v0c2.677-0.442 5.18-0.119 7.508 0.97 2.335 1.088 4.303 2.817 5.904 5.188 1.607 2.37 2.682 5.193 3.222 8.468zM17.859 5.836c1.73-0.286 3.257-1.024 4.58-2.216v0l-4.621-3.311 1.738-2.426 4.776 3.388c0.804-1.39 1.348-3.006 1.632-4.851 0.277-1.843 0.246-3.787-0.092-5.833v0c-0.432-2.618-1.26-4.893-2.485-6.826-1.225-1.933-2.712-3.353-4.463-4.26-1.751-0.907-3.603-1.199-5.557-0.877v0c-1.954 0.322-3.614 1.195-4.98 2.616-1.367 1.422-2.322 3.245-2.868 5.47-0.538 2.224-0.591 4.645-0.159 7.263v0c0.431 2.611 1.258 4.877 2.48 6.797 1.229 1.919 2.717 3.322 4.465 4.209 1.749 0.894 3.6 1.179 5.554 0.857zM48.853 4.928c-3.993 0.466-7.116-0.27-9.369-2.209-2.253-1.939-3.624-5.004-4.113-9.195v0l-2.381-20.402 3.566-0.416 2.38 20.402c0.744 6.377 3.924 9.238 9.539 8.582v0c2.536-0.296 4.446-1.354 5.731-3.175 1.284-1.821 1.747-4.271 1.387-7.351v0l-2.38-20.401 3.566-0.416 2.38 20.401c0.481 4.125-0.189 7.412-2.011 9.86-1.822 2.448-4.587 3.888-8.295 4.32zM89.306 0.914l-3.342 0.224-3.955-8.905-13.53 0.907-2.391 9.331-3.592 0.24 9.38-33.362 3.352-0.224zM73.816-26.08l-4.428 16.182 11.325-0.759zM111.532 0.272l-18.292 0.538-0.961-32.646 3.598-0.106 0.874 29.677 14.693-0.432zM124.47 0.336l-9.92 0 0-3.16 3.16 0-0.001-26.34-3.16 0 0-3.16 9.92 0 0 3.16-3.16 0 0.001 26.34 3.16 0zM141.257 0.904l-3.538-0.124 1.045-29.672-10.294-0.362 0.105-2.968 24.125 0.849-0.105 2.968-10.293-0.362zM158.869-20.063l-2.296-0.136 0.175-10.929 3.245 0.192zM183.167 3.843l-3.338-0.282-2.568-9.399-13.512-1.141-3.769 8.864-3.588-0.303 14.298-31.569 3.348 0.283zM171.92-25.176l-6.815 15.331 11.31 0.955zM195.86 5.324l-9.854-1.139 0.363-3.139 3.139 0.363 3.026-26.166-3.139-0.363 0.363-3.139 9.854 1.14-0.363 3.139-3.139-0.363-3.026 26.165 3.139 0.363zM223.717 9.48l-3.738-0.56-6.061-15.489-6.389-0.958-2.137 14.261-3.561-0.534 4.842-32.299 10.799 1.619c1.958 0.293 3.622 0.931 4.992 1.911 1.37 0.981 2.347 2.216 2.933 3.705 0.586 1.49 0.746 3.118 0.481 4.886v0c-0.322 2.149-1.244 3.892-2.765 5.227-1.529 1.341-3.408 2.118-5.638 2.331v0zM209.793-22.628l-1.825 12.174 6.764 1.014c2.083 0.312 3.772-0.001 5.066-0.94 1.287-0.94 2.068-2.326 2.342-4.159v0c0.274-1.826-0.066-3.384-1.019-4.672-0.959-1.29-2.481-2.091-4.564-2.403v0z" opacity="1" transform="matrix(1,0,0,1,0,0)" fill="#00784a" class="undefined-text-0" data-fill-palette-color="primary" id="text-0"></path>
                          </svg>
                        </g>
                      </svg>
                    </g>
                  </svg>
                </g>
              </svg>
            </g>
            <g transform="matrix(1,0,0,1,158.04955764907675,0)">
              <svg viewBox="0 0 79.42088470184648 119.13132705276972" height="119.13132705276972" width="79.42088470184648">
                <g>
                  <svg xmlns="http://www.w3.org/2000/svg" xmlns:xlink="http://www.w3.org/1999/xlink" version="1.1" x="0" y="0" viewBox="30 20 40 60" enable-background="new 0 0 100 100" xml:space="preserve" height="119.13132705276972" width="79.42088470184648" class="icon-icon-0" fill="#fffafe" data-fill-palette-color="accent" id="icon-0">
                    <circle fill="#00784a" cx="37.5" cy="22.5" r="2.5" data-fill-palette-color="accent"></circle>
                    <circle fill="#00784a" cx="37.5" cy="77.5" r="2.5" data-fill-palette-color="accent"></circle>
                    <circle fill="#00784a" cx="62.5" cy="22.5" r="2.5" data-fill-palette-color="accent"></circle>
                    <circle fill="#00784a" cx="62.5" cy="77.5" r="2.5" data-fill-palette-color="accent"></circle>
                    <circle fill="#00784a" cx="37.5" cy="50" r="7.5" data-fill-palette-color="accent"></circle>
                    <circle fill="#00784a" cx="62.5" cy="50" r="7.5" data-fill-palette-color="accent"></circle>
                  </svg>
                </g>
              </svg>
            </g>
            <g></g>
          </svg>
        </g>
      </svg>
      <rect width="395.52" height="215.89136567350982" fill="transparent" stroke="transparent"></rect>
    </g>
    <defs></defs>
  </svg>
</svg>